<?xml version="1.0" encoding="UTF-8"?>
<svg xmlns="http://www.w3.org/2000/svg" xmlns:xlink="http://www.w3.org/1999/xlink" width="55px" height="43px" viewBox="0 0 54 43" version="1.1">
<g id="surface1">
<path style=" stroke:none;fill-rule:nonzero;fill:rgb(0%,0%,0%);fill-opacity:1;" d="M 5.738281 17.25 L 5.707031 32.652344 L 5.453125 33.230469 C 5.164062 33.875 4.660156 34.375 3.957031 34.714844 C 3.550781 34.898438 3.253906 34.941406 2.238281 34.941406 C 1.566406 34.941406 0.851562 34.910156 0.660156 34.867188 L 0.316406 34.78125 L 0.339844 37.472656 L 0.371094 40.164062 L 0.691406 40.261719 C 0.875 40.316406 1.875 40.363281 2.933594 40.371094 C 5.011719 40.382812 5.953125 40.21875 7.363281 39.644531 C 9.667969 38.683594 11.128906 36.425781 11.523438 33.210938 C 11.589844 32.652344 11.632812 26.691406 11.632812 17.09375 L 11.632812 1.851562 L 5.761719 1.851562 Z M 5.738281 17.25 "/>
<path style=" stroke:none;fill-rule:nonzero;fill:rgb(0%,0%,0%);fill-opacity:1;" d="M 15.898438 20.988281 L 15.898438 40.121094 L 32.015625 40.121094 L 32.015625 34.78125 L 26.925781 34.757812 L 21.824219 34.722656 L 21.792969 28.804688 L 21.769531 22.894531 L 29.882812 22.894531 L 29.882812 17.445312 L 21.769531 17.445312 L 21.769531 7.304688 L 32.015625 7.304688 L 32.015625 1.851562 L 15.898438 1.851562 Z M 15.898438 20.988281 "/>
<path style=" stroke:none;fill-rule:nonzero;fill:rgb(0%,0%,0%);fill-opacity:1;" d="M 35.410156 21 L 35.378906 40.132812 L 41.144531 40.097656 C 46.691406 40.058594 46.9375 40.042969 47.757812 39.816406 C 49.253906 39.402344 50.308594 38.789062 51.292969 37.789062 C 52.273438 36.785156 52.765625 35.902344 53.222656 34.289062 C 53.492188 33.351562 53.5 33.164062 53.542969 30.070312 C 53.609375 26.429688 53.519531 25.480469 53.03125 23.917969 C 52.484375 22.175781 51.484375 20.957031 50.011719 20.203125 C 49.5625 19.972656 49.199219 19.769531 49.199219 19.734375 C 49.199219 19.699219 49.5 19.503906 49.859375 19.300781 C 51.207031 18.523438 52.125 17.238281 52.636719 15.429688 C 52.871094 14.609375 52.878906 14.371094 52.878906 11.394531 C 52.878906 7.785156 52.828125 7.425781 52.027344 5.722656 C 51.21875 4 49.957031 2.964844 47.898438 2.355469 C 46.457031 1.929688 45.28125 1.851562 40.179688 1.851562 L 35.433594 1.851562 Z M 45.601562 7.621094 C 46.222656 7.925781 46.683594 8.527344 46.9375 9.367188 C 47.085938 9.867188 47.117188 10.402344 47.117188 12.375 C 47.109375 14.628906 47.097656 14.816406 46.863281 15.429688 C 46.691406 15.851562 46.4375 16.253906 46.117188 16.582031 C 45.410156 17.28125 44.78125 17.445312 42.761719 17.445312 L 41.195312 17.445312 L 41.195312 12.449219 C 41.195312 9.703125 41.226562 7.414062 41.269531 7.371094 C 41.324219 7.324219 42.199219 7.304688 43.222656 7.324219 C 44.929688 7.359375 45.132812 7.378906 45.601562 7.621094 Z M 45.199219 23.027344 C 45.976562 23.179688 46.703125 23.679688 47.085938 24.3125 C 47.621094 25.207031 47.726562 26.082031 47.683594 29.492188 C 47.640625 32.914062 47.585938 33.1875 46.882812 33.929688 C 46.234375 34.617188 45.730469 34.722656 43.328125 34.722656 L 41.25 34.722656 L 41.21875 28.945312 C 41.203125 25.761719 41.21875 23.101562 41.25 23.027344 C 41.3125 22.851562 44.320312 22.839844 45.199219 23.027344 Z M 45.199219 23.027344 "/>
</g>
</svg>
